<?xml version="1.0" standalone="no"?>
<!DOCTYPE svg PUBLIC "-//W3C//DTD SVG 20010904//EN"
 "http://www.w3.org/TR/2001/REC-SVG-20010904/DTD/svg10.dtd">
<svg version="1.0" xmlns="http://www.w3.org/2000/svg"
 width="180.000000pt" height="180.000000pt" viewBox="0 0 180.000000 180.000000"
 preserveAspectRatio="xMidYMid meet">
<metadata>
Created by potrace 1.14, written by Peter Selinger 2001-2017
</metadata>
<g transform="translate(0.000000,180.000000) scale(0.100000,-0.100000)"
fill="#000000" stroke="none">
<path d="M1695 1790 c-42 -7 -134 -28 -195 -44 -171 -48 -426 -173 -600 -295
-79 -55 -193 -142 -202 -155 -6 -9 -53 -9 -180 -1 -65 4 -69 3 -105 -28 -21
-17 -51 -43 -67 -57 -16 -14 -46 -41 -67 -60 -21 -19 -78 -69 -128 -110 -49
-41 -90 -78 -90 -81 -1 -4 29 -12 66 -19 106 -18 319 -108 314 -133 0 -4 -1
-26 -1 -50 l0 -43 -56 -17 c-163 -50 -225 -110 -279 -268 -13 -36 -26 -86 -30
-110 -4 -24 -9 -53 -11 -64 -2 -11 -7 -62 -10 -113 l-7 -94 79 6 c233 17 392
66 470 144 36 36 97 154 109 210 5 26 12 32 33 33 15 1 38 2 52 3 22 1 31 -10
72 -94 43 -85 93 -244 83 -260 -2 -3 0 -11 4 -18 8 -13 15 -7 136 133 38 44
71 82 75 85 3 3 36 40 73 83 l67 77 -5 58 c-10 138 -8 182 8 200 48 50 77 89
156 208 47 71 92 140 99 152 51 89 167 342 156 342 -2 0 2 12 9 28 13 25 44
135 53 192 3 14 7 32 9 40 2 8 7 41 10 73 l6 57 -28 -1 c-15 -1 -50 -5 -78 -9z"/>
</g>
</svg>
