<?xml version="1.0" standalone="no"?>
<!DOCTYPE svg PUBLIC "-//W3C//DTD SVG 20010904//EN"
 "http://www.w3.org/TR/2001/REC-SVG-20010904/DTD/svg10.dtd">
<svg version="1.0" xmlns="http://www.w3.org/2000/svg"
 width="640.000000pt" height="640.000000pt" viewBox="0 0 640.000000 640.000000"
 preserveAspectRatio="xMidYMid meet">
<metadata>
Created by potrace 1.14, written by Peter Selinger 2001-2017
</metadata>
<g transform="translate(0.000000,640.000000) scale(0.100000,-0.100000)"
fill="#000000" stroke="none">
<path d="M4140 4069 c-134 -25 -293 -154 -276 -224 9 -35 33 -31 55 8 53 88
136 143 251 162 141 24 249 -10 348 -107 69 -68 77 -89 77 -203 -1 -78 -5
-113 -23 -159 -27 -73 -51 -100 -120 -134 -29 -14 -58 -32 -65 -40 -10 -13 -4
-14 48 -8 65 8 125 33 125 53 0 7 5 13 10 13 11 0 50 81 54 110 1 8 5 22 9 30
3 8 11 49 17 91 17 120 -11 206 -96 292 -44 45 -140 98 -199 111 -51 11 -168
13 -215 5z"/>
<path d="M1965 3984 c-157 -33 -242 -92 -298 -206 -64 -132 -76 -269 -32 -363
26 -55 84 -115 110 -115 19 0 19 -5 -4 -65 -11 -27 -25 -70 -32 -95 -7 -25
-16 -49 -20 -55 -9 -13 -47 -196 -54 -265 -11 -97 -4 -356 11 -381 2 -3 6 -21
9 -40 11 -64 53 -170 96 -242 47 -79 175 -214 229 -242 19 -10 37 -21 40 -24
14 -17 210 -106 265 -120 246 -62 271 -65 545 -65 244 0 392 16 640 69 244 53
379 90 485 135 17 7 36 14 44 16 48 10 336 171 361 203 3 3 30 27 60 52 52 43
140 157 140 179 0 6 3 10 8 10 8 0 22 29 54 115 39 106 33 420 -10 560 -31 98
-92 196 -142 226 -74 45 -80 9 -10 -64 27 -28 50 -57 50 -62 0 -6 14 -44 31
-84 33 -79 44 -140 54 -296 19 -328 -136 -554 -515 -746 -206 -105 -579 -206
-920 -250 -165 -21 -393 -27 -530 -15 -131 12 -318 57 -428 103 -80 33 -223
117 -230 134 -2 5 -8 9 -13 9 -10 0 -88 81 -128 131 -39 50 -99 184 -116 259
-9 41 -20 92 -25 113 -9 43 -6 311 5 372 13 77 65 273 79 302 115 227 123 262
46 193 -18 -16 -36 -30 -39 -30 -11 1 -56 45 -86 84 -29 38 -30 44 -29 137 0
54 5 104 11 111 5 7 15 32 23 56 18 57 94 135 167 169 48 23 71 28 128 27 159
-3 213 -88 170 -267 -13 -58 -13 -59 5 -42 51 46 81 179 56 239 -24 55 -76 95
-154 116 -39 11 -75 19 -79 19 -5 -1 -17 -3 -28 -5z"/>
<path d="M2930 3918 c-125 -24 -299 -72 -385 -107 -110 -44 -301 -156 -358
-210 -33 -30 -72 -90 -64 -97 3 -3 19 2 37 11 30 16 43 25 98 73 37 32 194
125 267 157 141 63 309 110 460 131 69 9 277 6 368 -6 42 -5 84 -7 92 -4 8 4
15 1 15 -5 0 -6 11 -11 24 -11 14 0 74 -16 136 -36 61 -20 113 -34 116 -31 3
3 3 15 -1 26 -8 27 -93 66 -185 85 -156 33 -502 46 -620 24z"/>
<path d="M3196 3381 c-21 -23 -7 -36 46 -44 47 -7 64 10 42 41 -19 27 -65 29
-88 3z"/>
<path d="M2915 3368 c-34 -20 -46 -41 -30 -57 16 -16 53 -9 86 18 20 16 21 21
10 35 -16 19 -38 20 -66 4z"/>
<path d="M3004 3175 c-49 -25 -94 -52 -100 -60 -6 -8 -15 -15 -20 -15 -14 0
-70 -65 -100 -115 -30 -52 -39 -127 -21 -176 17 -45 75 -93 143 -119 50 -19
74 -21 159 -18 93 3 105 6 172 42 86 45 161 108 169 142 3 13 10 24 16 24 16
0 40 73 40 118 -3 120 -148 222 -314 222 -46 0 -71 -8 -144 -45z m298 -49 c51
-24 86 -62 97 -103 24 -85 -65 -207 -197 -270 -62 -30 -83 -35 -145 -35 -119
-1 -218 49 -246 123 -26 70 48 194 154 260 35 22 45 24 45 6 0 -26 35 -43 97
-44 55 -2 63 0 78 23 9 14 15 33 14 42 -1 9 -1 20 0 23 2 10 60 -5 103 -25z"/>
</g>
</svg>
